<svg width="750" height="1050" viewBox="0 0 750 1050" xmlns="http://www.w3.org/2000/svg">
<rect x="0" y="0" width="750" height="1050" rx="24" fill="#F2E7D3" stroke="#1A1A1A" stroke-opacity="0.35" stroke-width="3"/>
<rect x="14" y="14" width="722" height="1022" rx="20" fill="none" stroke="#FFF7EA" stroke-opacity="0.55" stroke-width="2"/>

    <g transform="translate(70,110)">
      <text x="0" y="0" font-size="72" font-weight="800" font-family="ui-sans-serif, system-ui, -apple-system, Segoe UI, Roboto, Helvetica, Arial" fill="#1A1A1A">10</text>
      <g transform="translate(18,44)"><g transform="translate(-24.0,-24.0) scale(0.48)">
        <circle cx="35" cy="38" r="18" fill="#1A1A1A"/>
        <circle cx="65" cy="38" r="18" fill="#1A1A1A"/>
        <circle cx="50" cy="20" r="18" fill="#1A1A1A"/>
        <path d="M44 48 C44 62 36 70 28 72 L28 86 L72 86 L72 72 C64 70 56 62 56 48 Z" fill="#1A1A1A"/>
        </g></g>
    </g>
    

      <g transform="translate(680,940) rotate(180)">
        <text x="0" y="0" font-size="72" font-weight="800" font-family="ui-sans-serif, system-ui, -apple-system, Segoe UI, Roboto, Helvetica, Arial" fill="#1A1A1A">10</text>
        <g transform="translate(18,44)"><g transform="translate(-24.0,-24.0) scale(0.48)">
        <circle cx="35" cy="38" r="18" fill="#1A1A1A"/>
        <circle cx="65" cy="38" r="18" fill="#1A1A1A"/>
        <circle cx="50" cy="20" r="18" fill="#1A1A1A"/>
        <path d="M44 48 C44 62 36 70 28 72 L28 86 L72 86 L72 72 C64 70 56 62 56 48 Z" fill="#1A1A1A"/>
        </g></g>
      </g>
    
<g transform="translate(230,220)"><g transform="translate(-38.0,-38.0) scale(0.76)">
        <circle cx="35" cy="38" r="18" fill="#1A1A1A"/>
        <circle cx="65" cy="38" r="18" fill="#1A1A1A"/>
        <circle cx="50" cy="20" r="18" fill="#1A1A1A"/>
        <path d="M44 48 C44 62 36 70 28 72 L28 86 L72 86 L72 72 C64 70 56 62 56 48 Z" fill="#1A1A1A"/>
        </g></g>
<g transform="translate(520,220)"><g transform="translate(-38.0,-38.0) scale(0.76)">
        <circle cx="35" cy="38" r="18" fill="#1A1A1A"/>
        <circle cx="65" cy="38" r="18" fill="#1A1A1A"/>
        <circle cx="50" cy="20" r="18" fill="#1A1A1A"/>
        <path d="M44 48 C44 62 36 70 28 72 L28 86 L72 86 L72 72 C64 70 56 62 56 48 Z" fill="#1A1A1A"/>
        </g></g>
<g transform="translate(230,320)"><g transform="translate(-38.0,-38.0) scale(0.76)">
        <circle cx="35" cy="38" r="18" fill="#1A1A1A"/>
        <circle cx="65" cy="38" r="18" fill="#1A1A1A"/>
        <circle cx="50" cy="20" r="18" fill="#1A1A1A"/>
        <path d="M44 48 C44 62 36 70 28 72 L28 86 L72 86 L72 72 C64 70 56 62 56 48 Z" fill="#1A1A1A"/>
        </g></g>
<g transform="translate(520,320)"><g transform="translate(-38.0,-38.0) scale(0.76)">
        <circle cx="35" cy="38" r="18" fill="#1A1A1A"/>
        <circle cx="65" cy="38" r="18" fill="#1A1A1A"/>
        <circle cx="50" cy="20" r="18" fill="#1A1A1A"/>
        <path d="M44 48 C44 62 36 70 28 72 L28 86 L72 86 L72 72 C64 70 56 62 56 48 Z" fill="#1A1A1A"/>
        </g></g>
<g transform="translate(230,475.0)"><g transform="translate(-38.0,-38.0) scale(0.76)">
        <circle cx="35" cy="38" r="18" fill="#1A1A1A"/>
        <circle cx="65" cy="38" r="18" fill="#1A1A1A"/>
        <circle cx="50" cy="20" r="18" fill="#1A1A1A"/>
        <path d="M44 48 C44 62 36 70 28 72 L28 86 L72 86 L72 72 C64 70 56 62 56 48 Z" fill="#1A1A1A"/>
        </g></g>
<g transform="translate(520,475.0)"><g transform="translate(-38.0,-38.0) scale(0.76)">
        <circle cx="35" cy="38" r="18" fill="#1A1A1A"/>
        <circle cx="65" cy="38" r="18" fill="#1A1A1A"/>
        <circle cx="50" cy="20" r="18" fill="#1A1A1A"/>
        <path d="M44 48 C44 62 36 70 28 72 L28 86 L72 86 L72 72 C64 70 56 62 56 48 Z" fill="#1A1A1A"/>
        </g></g>
<g transform="translate(230,600) rotate(180)"><g transform="translate(-38.0,-38.0) scale(0.76)">
        <circle cx="35" cy="38" r="18" fill="#1A1A1A"/>
        <circle cx="65" cy="38" r="18" fill="#1A1A1A"/>
        <circle cx="50" cy="20" r="18" fill="#1A1A1A"/>
        <path d="M44 48 C44 62 36 70 28 72 L28 86 L72 86 L72 72 C64 70 56 62 56 48 Z" fill="#1A1A1A"/>
        </g></g>
<g transform="translate(520,600) rotate(180)"><g transform="translate(-38.0,-38.0) scale(0.76)">
        <circle cx="35" cy="38" r="18" fill="#1A1A1A"/>
        <circle cx="65" cy="38" r="18" fill="#1A1A1A"/>
        <circle cx="50" cy="20" r="18" fill="#1A1A1A"/>
        <path d="M44 48 C44 62 36 70 28 72 L28 86 L72 86 L72 72 C64 70 56 62 56 48 Z" fill="#1A1A1A"/>
        </g></g>
<g transform="translate(230,730) rotate(180)"><g transform="translate(-38.0,-38.0) scale(0.76)">
        <circle cx="35" cy="38" r="18" fill="#1A1A1A"/>
        <circle cx="65" cy="38" r="18" fill="#1A1A1A"/>
        <circle cx="50" cy="20" r="18" fill="#1A1A1A"/>
        <path d="M44 48 C44 62 36 70 28 72 L28 86 L72 86 L72 72 C64 70 56 62 56 48 Z" fill="#1A1A1A"/>
        </g></g>
<g transform="translate(520,730) rotate(180)"><g transform="translate(-38.0,-38.0) scale(0.76)">
        <circle cx="35" cy="38" r="18" fill="#1A1A1A"/>
        <circle cx="65" cy="38" r="18" fill="#1A1A1A"/>
        <circle cx="50" cy="20" r="18" fill="#1A1A1A"/>
        <path d="M44 48 C44 62 36 70 28 72 L28 86 L72 86 L72 72 C64 70 56 62 56 48 Z" fill="#1A1A1A"/>
        </g></g>
<circle cx="375.0" cy="525.0" r="170" fill="none" stroke="#1FAE63" stroke-width="10" stroke-opacity="0.18"/>
</svg>