<?xml version="1.0" encoding="UTF-8"?>
<svg xmlns="http://www.w3.org/2000/svg" width="300" height="420" viewBox="0 0 300 420">
  <defs>
    <filter id="shadow" x="-20%" y="-20%" width="140%" height="140%">
      <feDropShadow dx="0" dy="2" stdDeviation="2" flood-color="#000" flood-opacity="0.15"/>
    </filter>
  </defs>

  <!-- Card base -->
  <rect x="8" y="8" width="284" height="404" rx="22" ry="22" fill="#ffffff" filter="url(#shadow)"/>
  <rect x="12" y="12" width="276" height="396" rx="16" ry="16" fill="#ffffff" stroke="#e6e6e6" stroke-width="2"/>

  <!-- Top-left corner (bigger) -->
  <g transform="translate(18,18)">
    <text x="0" y="44" font-family="system-ui, -apple-system, Segoe UI, Roboto, Arial, sans-serif"
          font-size="44" font-weight="800" fill="#111">3</text>
    <g transform="translate(0,50) scale(0.34)">
      <path d="M50 12 C41 12 34 19 34 28 C34 33 36 38 39 41 C32 40 25 45 22 52 C18 61 22 71 30 76 C38 81 48 78 52 71 C54 78 63 83 72 80 C82 76 86 65 82 56 C79 49 72 45 65 45 C68 42 70 37 70 32 C70 21 61 12 50 12 Z M44 74 L56 74 L63 96 L37 96 Z" fill="#111"/>
    </g>
  </g>

  <!-- Center suit (subtle, unchanged-ish) -->
  <g opacity="0.12" transform="translate(150.0,210.0) translate(-85.0,-85.0) scale(1.7)">
    <path d="M50 12 C41 12 34 19 34 28 C34 33 36 38 39 41 C32 40 25 45 22 52 C18 61 22 71 30 76 C38 81 48 78 52 71 C54 78 63 83 72 80 C82 76 86 65 82 56 C79 49 72 45 65 45 C68 42 70 37 70 32 C70 21 61 12 50 12 Z M44 74 L56 74 L63 96 L37 96 Z" fill="#111"/>
  </g>

  <!-- Bottom-right mirrored small corner (optional, keeps traditional look) -->
  <g transform="translate(282,402) rotate(180)">
    <text x="0" y="44" text-anchor="end"
          font-family="system-ui, -apple-system, Segoe UI, Roboto, Arial, sans-serif"
          font-size="44" font-weight="800" fill="#111">3</text>
    <g transform="translate(-34, 50) scale(0.34)">
      <path d="M50 12 C41 12 34 19 34 28 C34 33 36 38 39 41 C32 40 25 45 22 52 C18 61 22 71 30 76 C38 81 48 78 52 71 C54 78 63 83 72 80 C82 76 86 65 82 56 C79 49 72 45 65 45 C68 42 70 37 70 32 C70 21 61 12 50 12 Z M44 74 L56 74 L63 96 L37 96 Z" fill="#111"/>
    </g>
  </g>
</svg>
