<svg width="750" height="1050" viewBox="0 0 750 1050" xmlns="http://www.w3.org/2000/svg">
<rect x="0" y="0" width="750" height="1050" rx="24" fill="#F2E7D3" stroke="#1A1A1A" stroke-opacity="0.35" stroke-width="3"/>
<rect x="14" y="14" width="722" height="1022" rx="20" fill="none" stroke="#FFF7EA" stroke-opacity="0.55" stroke-width="2"/>

    <g transform="translate(70,110)">
      <text x="0" y="0" font-size="72" font-weight="800" font-family="ui-sans-serif, system-ui, -apple-system, Segoe UI, Roboto, Helvetica, Arial" fill="#1A1A1A">3</text>
      <g transform="translate(18,44)"><g transform="translate(-24.0,-24.0) scale(0.48)"><path d="M50 8 C70 28 90 44 90 62 C90 78 78 90 62 90 C54 90 50 86 50 82 C50 86 46 90 38 90 C22 90 10 78 10 62 C10 44 30 28 50 8 Z" fill="#1A1A1A"/><path d="M44 78 C44 86 38 92 30 94 L30 100 L70 100 L70 94 C62 92 56 86 56 78 Z" fill="#1A1A1A"/></g></g>
    </g>
    

      <g transform="translate(680,940) rotate(180)">
        <text x="0" y="0" font-size="72" font-weight="800" font-family="ui-sans-serif, system-ui, -apple-system, Segoe UI, Roboto, Helvetica, Arial" fill="#1A1A1A">3</text>
        <g transform="translate(18,44)"><g transform="translate(-24.0,-24.0) scale(0.48)"><path d="M50 8 C70 28 90 44 90 62 C90 78 78 90 62 90 C54 90 50 86 50 82 C50 86 46 90 38 90 C22 90 10 78 10 62 C10 44 30 28 50 8 Z" fill="#1A1A1A"/><path d="M44 78 C44 86 38 92 30 94 L30 100 L70 100 L70 94 C62 92 56 86 56 78 Z" fill="#1A1A1A"/></g></g>
      </g>
    
<g transform="translate(375.0,220)"><g transform="translate(-43.0,-43.0) scale(0.86)"><path d="M50 8 C70 28 90 44 90 62 C90 78 78 90 62 90 C54 90 50 86 50 82 C50 86 46 90 38 90 C22 90 10 78 10 62 C10 44 30 28 50 8 Z" fill="#1A1A1A"/><path d="M44 78 C44 86 38 92 30 94 L30 100 L70 100 L70 94 C62 92 56 86 56 78 Z" fill="#1A1A1A"/></g></g>
<g transform="translate(375.0,475.0)"><g transform="translate(-43.0,-43.0) scale(0.86)"><path d="M50 8 C70 28 90 44 90 62 C90 78 78 90 62 90 C54 90 50 86 50 82 C50 86 46 90 38 90 C22 90 10 78 10 62 C10 44 30 28 50 8 Z" fill="#1A1A1A"/><path d="M44 78 C44 86 38 92 30 94 L30 100 L70 100 L70 94 C62 92 56 86 56 78 Z" fill="#1A1A1A"/></g></g>
<g transform="translate(375.0,730) rotate(180)"><g transform="translate(-43.0,-43.0) scale(0.86)"><path d="M50 8 C70 28 90 44 90 62 C90 78 78 90 62 90 C54 90 50 86 50 82 C50 86 46 90 38 90 C22 90 10 78 10 62 C10 44 30 28 50 8 Z" fill="#1A1A1A"/><path d="M44 78 C44 86 38 92 30 94 L30 100 L70 100 L70 94 C62 92 56 86 56 78 Z" fill="#1A1A1A"/></g></g>
<circle cx="375.0" cy="525.0" r="170" fill="none" stroke="#F4C430" stroke-width="10" stroke-opacity="0.18"/>
</svg>