<?xml version="1.0" encoding="UTF-8"?>
<svg xmlns="http://www.w3.org/2000/svg" width="300" height="420" viewBox="0 0 300 420">
  <defs>
    <filter id="shadow" x="-20%" y="-20%" width="140%" height="140%">
      <feDropShadow dx="0" dy="2" stdDeviation="2" flood-color="#000" flood-opacity="0.15"/>
    </filter>
  </defs>

  <!-- Card base -->
  <rect x="8" y="8" width="284" height="404" rx="22" ry="22" fill="#ffffff" filter="url(#shadow)"/>
  <rect x="12" y="12" width="276" height="396" rx="16" ry="16" fill="#ffffff" stroke="#e6e6e6" stroke-width="2"/>

  <!-- Top-left corner (bigger) -->
  <g transform="translate(18,18)">
    <text x="0" y="44" font-family="system-ui, -apple-system, Segoe UI, Roboto, Arial, sans-serif"
          font-size="44" font-weight="800" fill="#111">5</text>
    <g transform="translate(0,50) scale(0.34)">
      <path d="M50 5 C22 25 10 38 10 55 C10 72 24 84 40 84 C46 84 50 82 50 82 C50 82 54 84 60 84 C76 84 90 72 90 55 C90 38 78 25 50 5 Z M42 82 L58 82 L66 95 L34 95 Z" fill="#111"/>
    </g>
  </g>

  <!-- Center suit (subtle, unchanged-ish) -->
  <g opacity="0.12" transform="translate(150.0,210.0) translate(-85.0,-85.0) scale(1.7)">
    <path d="M50 5 C22 25 10 38 10 55 C10 72 24 84 40 84 C46 84 50 82 50 82 C50 82 54 84 60 84 C76 84 90 72 90 55 C90 38 78 25 50 5 Z M42 82 L58 82 L66 95 L34 95 Z" fill="#111"/>
  </g>

  <!-- Bottom-right mirrored small corner (optional, keeps traditional look) -->
  <g transform="translate(282,402) rotate(180)">
    <text x="0" y="44" text-anchor="end"
          font-family="system-ui, -apple-system, Segoe UI, Roboto, Arial, sans-serif"
          font-size="44" font-weight="800" fill="#111">5</text>
    <g transform="translate(-34, 50) scale(0.34)">
      <path d="M50 5 C22 25 10 38 10 55 C10 72 24 84 40 84 C46 84 50 82 50 82 C50 82 54 84 60 84 C76 84 90 72 90 55 C90 38 78 25 50 5 Z M42 82 L58 82 L66 95 L34 95 Z" fill="#111"/>
    </g>
  </g>
</svg>
