<svg width="750" height="1050" viewBox="0 0 750 1050" xmlns="http://www.w3.org/2000/svg">
<rect x="0" y="0" width="750" height="1050" rx="24" fill="#F2E7D3" stroke="#1A1A1A" stroke-opacity="0.35" stroke-width="3"/>
<rect x="14" y="14" width="722" height="1022" rx="20" fill="none" stroke="#FFF7EA" stroke-opacity="0.55" stroke-width="2"/>

    <g transform="translate(70,110)">
      <text x="0" y="0" font-size="72" font-weight="800" font-family="ui-sans-serif, system-ui, -apple-system, Segoe UI, Roboto, Helvetica, Arial" fill="#1A1A1A">Q</text>
      <g transform="translate(18,44)"><g transform="translate(-24.0,-24.0) scale(0.48)">
        <circle cx="35" cy="38" r="18" fill="#1A1A1A"/>
        <circle cx="65" cy="38" r="18" fill="#1A1A1A"/>
        <circle cx="50" cy="20" r="18" fill="#1A1A1A"/>
        <path d="M44 48 C44 62 36 70 28 72 L28 86 L72 86 L72 72 C64 70 56 62 56 48 Z" fill="#1A1A1A"/>
        </g></g>
    </g>
    

      <g transform="translate(680,940) rotate(180)">
        <text x="0" y="0" font-size="72" font-weight="800" font-family="ui-sans-serif, system-ui, -apple-system, Segoe UI, Roboto, Helvetica, Arial" fill="#1A1A1A">Q</text>
        <g transform="translate(18,44)"><g transform="translate(-24.0,-24.0) scale(0.48)">
        <circle cx="35" cy="38" r="18" fill="#1A1A1A"/>
        <circle cx="65" cy="38" r="18" fill="#1A1A1A"/>
        <circle cx="50" cy="20" r="18" fill="#1A1A1A"/>
        <path d="M44 48 C44 62 36 70 28 72 L28 86 L72 86 L72 72 C64 70 56 62 56 48 Z" fill="#1A1A1A"/>
        </g></g>
      </g>
    
<circle cx="375.0" cy="525.0" r="240" fill="none" stroke="#1FAE63" stroke-width="18" stroke-opacity="0.45"/>
<circle cx="375.0" cy="525.0" r="200" fill="none" stroke="#1A1A1A" stroke-width="4" stroke-opacity="0.15"/>
<g transform="translate(375.0,565.0)"><g transform="translate(-130.0,-130.0) scale(2.6)">
        <circle cx="35" cy="38" r="18" fill="#1A1A1A"/>
        <circle cx="65" cy="38" r="18" fill="#1A1A1A"/>
        <circle cx="50" cy="20" r="18" fill="#1A1A1A"/>
        <path d="M44 48 C44 62 36 70 28 72 L28 86 L72 86 L72 72 C64 70 56 62 56 48 Z" fill="#1A1A1A"/>
        </g></g>
<text x="375.0" y="355.0" text-anchor="middle" font-size="210" font-weight="900" font-family="ui-sans-serif, system-ui, -apple-system, Segoe UI, Roboto, Helvetica, Arial" fill="#1A1A1A">Q</text>
<rect x="115.0" y="775.0" width="520" height="14" rx="7" fill="#1FAE63" fill-opacity="0.55"/>
</svg>